<svg width="260" height="106" viewBox="0 0 260 106" fill="none" xmlns="http://www.w3.org/2000/svg">
<rect width="260" height="106" fill="#1E1E1E"/>
<rect x="-100" y="-316" width="462" height="608" rx="32" fill="white"/>
<rect x="-19.5" y="-19.5" width="318" height="145" rx="4.5" fill="#E5EAEB"/>
<rect x="-19.5" y="-19.5" width="318" height="145" rx="4.5" stroke="#9747FF" stroke-dasharray="10 5"/>
<path d="M260 106V85.5063C248.331 73.0595 191.317 15.9203 114.259 0H0V106H260Z" fill="#F1532D"/>
<path d="M260 76.8225V20.1464C237.414 22.6357 217.601 31.0879 209.398 34.9667C214.423 38.3244 219.391 41.8558 224.128 45.4451C240.533 57.834 252.953 69.586 260 76.7646V76.8225Z" fill="#028485"/>
<path d="M137.885 0C154.406 5.21027 170.811 12.331 187.043 21.3042C188.66 13.6046 195.419 7.8154 203.622 7.8154C211.824 7.8154 219.969 14.8782 220.489 23.7936C230.887 19.9148 244.923 15.6887 259.942 14.0677V0H137.885Z" fill="#F3AB2E"/>
<path d="M37.4895 24.6619V27.5565H30.2689V48.3397H27.1496V27.5565H19.929V24.6619H37.4895Z" fill="white"/>
<path d="M46.8474 32.5352L46.3853 35.3719C45.5188 34.9667 44.6524 34.793 44.0747 34.793C40.8977 34.793 39.6268 38.2665 39.6268 42.4926V48.3976H36.623V32.3615H39.6268V36.0087C40.4355 33.172 41.9952 31.9563 44.1325 31.9563C46.2698 31.9563 46.4431 32.2458 46.9052 32.5931L46.8474 32.5352Z" fill="white"/>
<path d="M61.5775 32.3036H64.5812V48.3397H61.5775V45.503C60.5377 47.4134 58.2849 48.7449 55.6854 48.7449C51.5264 48.7449 47.8294 45.2135 47.8294 40.2927C47.8294 35.3719 51.2953 31.8405 55.801 31.8405C60.3066 31.8405 60.4799 32.8826 61.5197 34.793V32.3036H61.5775ZM61.5775 40.3506C61.5775 37.0508 58.8047 34.7351 56.1476 34.7351C53.4904 34.7351 50.8909 37.3402 50.8909 40.3506C50.8909 43.361 53.2015 45.9661 56.2053 45.9661C59.2091 45.9661 61.6352 43.5926 61.6352 40.3506H61.5775Z" fill="white"/>
<path d="M79.7156 32.3036H82.9505L76.2497 48.3397H73.3037L66.6608 32.3036H69.8378L74.8056 44.5767L79.7156 32.3036Z" fill="white"/>
<path d="M99.7024 41.6242H86.6475C87.1096 44.4609 89.1314 45.9661 91.9041 45.9661C94.6768 45.9661 95.6588 45.0978 96.583 43.4768L99.1825 44.5188C97.7961 47.2976 94.9079 48.8028 91.8463 48.8028C87.2829 48.8028 83.5859 45.3872 83.5859 40.2927C83.5859 35.1982 87.2829 31.8984 91.8463 31.8984C96.4098 31.8984 99.8179 35.1982 99.8179 40.2927C99.8179 45.3872 99.8179 41.1611 99.7601 41.6242H99.7024ZM96.7563 39.077C96.352 36.2982 94.4457 34.7351 91.7886 34.7351C89.1314 34.7351 87.1674 36.1824 86.6475 39.077H96.7563Z" fill="white"/>
<path d="M102.822 48.3976V23.6199H105.825V48.3976H102.822Z" fill="white"/>
<path d="M29.1713 56.5024C35.9876 56.5024 39.9156 61.6548 39.9156 68.4282C39.9156 75.2015 35.9876 80.2381 29.1713 80.2381H19.929V56.5603H29.1713V56.5024ZM29.1713 75.9541C33.0994 75.9541 35.1211 72.4227 35.1211 68.3703C35.1211 64.3178 33.0994 60.7285 29.1713 60.7285H24.6657V75.9541H29.1713Z" fill="white"/>
<path d="M58.3426 73.6384H46.2697C46.7319 75.5489 48.2338 76.6488 50.3711 76.6488C52.5084 76.6488 53.6059 75.8962 54.5879 74.7384L57.1873 77.4014C55.6854 79.4276 52.9127 80.6433 50.0822 80.6433C45.1144 80.6433 41.533 77.1698 41.533 72.1911C41.533 67.2124 45.461 63.7389 50.0245 63.7389C54.5879 63.7389 58.3426 66.9809 58.3426 71.9017C58.3426 76.8225 58.3426 72.8858 58.2271 73.6384H58.3426ZM53.8947 70.6859C53.7792 68.7755 52.2195 67.6177 50.1978 67.6177C48.176 67.6177 46.7896 68.5439 46.2697 70.6859H53.8947Z" fill="white"/>
<path d="M72.5528 64.2599L71.5131 68.5439C70.531 68.0229 69.7801 67.965 69.2025 67.965C66.8919 67.965 65.3322 70.107 65.3322 74.6805V80.1802H60.8265V64.1442H65.2744V67.5598C66.1409 64.8968 67.9894 63.681 69.9534 63.681C71.9174 63.681 71.7441 63.7968 72.4951 64.2021L72.5528 64.2599Z" fill="white"/>
<path d="M92.1351 72.1332C92.1351 77.2856 88.3804 80.5855 84.2791 80.5855C80.1778 80.5855 80.2355 79.8329 79.138 78.154V80.1223H74.6323V55.3446H79.138V65.9967C80.2933 64.3757 82.4884 63.681 84.2791 63.681C88.3804 63.681 92.1351 66.923 92.1351 72.1332ZM87.5139 72.1332C87.5139 69.7597 85.6654 67.9071 83.4126 67.9071C81.1598 67.9071 79.2535 69.6439 79.2535 72.1332C79.2535 74.6226 81.2175 76.4172 83.4126 76.4172C85.6077 76.4172 87.5139 74.5068 87.5139 72.1332Z" fill="white"/>
<path d="M104.555 64.1442H109.407L99.529 88.1114H94.7345L98.547 78.7329L92.1929 64.2021H97.1607L100.915 73.4648L104.612 64.2021L104.555 64.1442Z" fill="white"/>
<path d="M110.158 75.1436H114.375C114.375 76.0699 115.183 77.0541 116.743 77.0541C118.303 77.0541 119.054 76.4172 119.054 75.491C119.054 74.5647 118.476 74.4489 117.321 74.1595L115.183 73.6384C111.082 72.5385 110.504 70.2228 110.504 68.5439C110.504 66.0546 113.104 63.7389 116.801 63.7389C120.498 63.7389 123.155 65.1283 123.097 68.9492H118.823C118.823 67.8492 117.956 67.2703 116.859 67.2703C115.761 67.2703 115.01 67.8492 115.01 68.6597C115.01 69.4702 115.703 69.8176 116.57 70.0491L119.227 70.7438C123.097 71.7859 123.559 74.1595 123.559 75.491C123.559 78.8487 120.151 80.6433 116.859 80.6433C113.566 80.6433 110.216 78.7329 110.216 75.2015L110.158 75.1436Z" fill="white"/>
<path d="M141.697 71.3807V80.1802H137.192V71.6701C137.192 69.1808 135.69 67.965 134.13 67.965C132.571 67.965 130.549 68.8334 130.549 71.728V80.1802H126.043V55.4025H130.549V66.6914C131.242 64.6073 133.784 63.7389 135.343 63.7389C139.502 63.7389 141.755 66.5756 141.697 71.3807Z" fill="white"/>
<path d="M144.355 58.5865C144.355 57.0814 145.683 55.9235 147.185 55.9235C148.687 55.9235 150.016 57.0814 150.016 58.5865C150.016 60.0917 148.745 61.3075 147.185 61.3075C145.625 61.3075 144.355 60.0917 144.355 58.5865ZM144.99 80.1802V64.1442H149.496V80.1802H144.99Z" fill="white"/>
<path d="M164.688 64.2599L163.648 68.5439C162.666 68.0229 161.915 67.965 161.338 67.965C159.027 67.965 157.467 70.107 157.467 74.6805V80.1802H152.962V64.1442H157.41V67.5598C158.276 64.8968 160.124 63.681 162.088 63.681C164.052 63.681 163.879 63.7968 164.63 64.2021L164.688 64.2599Z" fill="white"/>
<path d="M182.017 73.6384H169.944C170.407 75.5489 171.908 76.6488 174.046 76.6488C176.183 76.6488 177.281 75.8962 178.263 74.7384L180.862 77.4014C179.36 79.4276 176.587 80.6433 173.757 80.6433C168.789 80.6433 165.208 77.1698 165.208 72.1911C165.208 67.2124 169.136 63.7389 173.699 63.7389C178.263 63.7389 182.017 66.9809 182.017 71.9017C182.017 76.8225 182.017 72.8858 181.902 73.6384H182.017ZM177.627 70.6859C177.512 68.7755 175.952 67.6177 173.93 67.6177C171.909 67.6177 170.522 68.5439 170.002 70.6859H177.627Z" fill="white"/>
</svg>
